<svg xmlns="http://www.w3.org/2000/svg" width="512" height="512" viewBox="0 0 512 512" fill="none">
  <title>Open palm line detail</title>
  <desc>Project-original reusable beauty editorial vector.</desc>
  <path d="M122 294L96 212Q90 184 112 174Q134 166 148 196L170 244L150 116Q146 86 170 80Q196 76 204 108L222 224L218 86Q218 54 246 54Q274 54 276 88L282 222L294 104Q298 74 324 78Q350 82 348 114L340 240L362 154Q370 124 394 132Q418 142 410 172L382 314Q358 432 256 454Q154 434 122 294Z" fill="#E8C8C3" stroke="#292625" stroke-width="8" stroke-linejoin="round"/>
</svg>
